# xmcd
#
# Track frame offsets:
#	150
#	15592
#	29832
#	44494
#	58298
#	72740
#	85621
#	98820
#	107345
#	120502
#	134549
#	144468
#	156575
#	169715
#	184542
#	199204
#	214318
#	228895
#	242397
#	256486
#
# Disc length: 3619 seconds
#
# Revision: 0
# Processed by: cddbd v1.4PL0 Copyright (c) Steve Scherf et al.
# Submitted via: audiograbber 1.82.01
#
DISCID=210e2114
DTITLE=Billie Holiday - The Essential 3
DYEAR=2002
DGENRE=Oldies
TTITLE0=They Can't Take That Away From Me
TTITLE1=The Man I Love
TTITLE2=Fine And Mellow
TTITLE3=The Mood That I'm In
TTITLE4=Mean To Me
TTITLE5=I Can't Get Started
TTITLE6=Ghost Of Yesterday
TTITLE7=Swing Brother Swing
TTITLE8=Did I Remember?
TTITLE9=I'll Never Be The Same
TTITLE10=I'm Gonna Lock My Heart
TTITLE11=No Regrets
TTITLE12=A Fine Romance
TTITLE13=Who Loves You?
TTITLE14=I'll Get By (Aternate Take)
TTITLE15=Trav'lin Light
TTITLE16=Solitude
TTITLE17=I've Got My Love To Keep You Warm
TTITLE18=Good Morning Heartache
TTITLE19=These 'n' That 'n' Those
EXTD=
EXTT0=
EXTT1=
EXTT2=
EXTT3=
EXTT4=
EXTT5=
EXTT6=
EXTT7=
EXTT8=
EXTT9=
EXTT10=
EXTT11=
EXTT12=
EXTT13=
EXTT14=
EXTT15=
EXTT16=
EXTT17=
EXTT18=
EXTT19=
PLAYORDER=
